<?xml version="1.0" encoding="UTF-8" standalone="no"?>
<svg
   xmlns:dc="http://purl.org/dc/elements/1.1/"
   xmlns:cc="http://creativecommons.org/ns#"
   xmlns:rdf="http://www.w3.org/1999/02/22-rdf-syntax-ns#"
   xmlns:svg="http://www.w3.org/2000/svg"
   xmlns="http://www.w3.org/2000/svg"
   viewBox="0 0 225.67999 108.36"
   height="108.36"
   width="225.67999"
   xml:space="preserve"
   id="svg2"
   version="1.1"><metadata
     id="metadata8"><rdf:RDF><cc:Work
         rdf:about=""><dc:format>image/svg+xml</dc:format><dc:type
           rdf:resource="http://purl.org/dc/dcmitype/StillImage" /></cc:Work></rdf:RDF></metadata><defs
     id="defs6" /><g
     transform="matrix(1.3333333,0,0,-1.3333333,0,108.36)"
     id="g10"><g
       transform="scale(0.1)"
       id="g12"><path
         id="path14"
         style="fill:#b00357;fill-opacity:1;fill-rule:nonzero;stroke:none"
         d="m 592.219,407.035 v 19.199 c -21.883,-30.156 -54.289,-45.222 -97.231,-45.222 -48.718,0 -82.586,15.066 -101.566,45.222 -8.262,13.196 -12.797,28.684 -13.609,46.446 -0.434,8.664 -0.629,26.828 -0.629,54.492 v 51.398 c 0,56.551 -6.043,84.844 -18.133,84.844 -2.5,0 -6.461,-0.305 -11.875,-0.93 -5.43,-0.613 -9.606,-0.925 -12.52,-0.925 -14.59,0 -21.875,6.707 -21.875,20.117 0,13.015 8.875,19.531 26.629,19.531 4.121,0 10.215,-0.539 18.262,-1.562 8.055,-1.028 14.144,-1.543 18.266,-1.543 3.726,0 10.125,0.613 19.195,1.855 6.195,0.82 9.707,1.25 10.535,1.25 12.801,0 19.207,-7.852 19.207,-23.547 v -53.262 l -1.871,-45.828 v -40.246 c 0,-35.926 2.902,-61.726 8.68,-77.41 9.492,-26.016 32.211,-39.016 68.113,-39.016 17.754,0 33.453,4.024 47.082,12.071 13.609,8.047 23.117,18.683 28.48,31.894 6.61,16.094 9.907,46.653 9.907,91.66 v 34.055 c 0,24.774 0,38.184 0,40.254 -2.071,19.824 -7.438,29.727 -16.098,29.727 -4.559,0 -8.262,0 -11.148,0 h -7.43 c -14.461,0 -21.684,6.199 -21.684,18.613 0,14.012 8.047,21.035 24.16,21.035 3.711,0 9.391,-0.43 17.028,-1.25 7.633,-0.832 13.316,-1.242 17.043,-1.242 3.297,0 8.246,0.41 14.851,1.242 6.61,0.82 11.559,1.25 14.856,1.25 12.386,0 18.582,-6.641 18.582,-19.875 0,-5.801 -0.414,-10.352 -1.227,-13.652 -2.09,-15.731 -3.113,-38.907 -3.113,-69.52 v -95.586 c 0,-25.254 0.215,-39.308 0.629,-42.207 2.051,-21.933 7.832,-32.91 17.34,-32.91 2.883,0 7.019,0.418 12.386,1.25 5.368,0.82 9.489,1.238 12.387,1.238 14.027,0 21.047,-6.726 21.047,-20.125 0,-13.84 -8.66,-20.742 -25.996,-20.742 -3.731,0 -9.094,0.41 -16.098,1.231 -10.332,1.23 -16.73,1.863 -19.211,1.863 -1.246,0 -5.566,-0.43 -13.004,-1.238 -4.949,-1.25 -9.285,-1.856 -12.996,-1.856 -11.578,0 -17.351,5.977 -17.351,17.957" /><path
         id="path16"
         style="fill:#b00357;fill-opacity:1;fill-rule:nonzero;stroke:none"
         d="m 885.723,667.895 c 27.226,-4.383 48.828,-15.184 64.804,-32.391 l 0.403,2.449 c 2.429,15.078 10.164,21.563 23.191,19.465 13.469,-2.168 19.133,-9.777 17.031,-22.824 -0.382,-2.442 -1.711,-8.496 -3.972,-18.172 -2.668,-7.942 -4.66,-15.969 -5.969,-24.121 -0.789,-4.895 -1.438,-12.11 -1.914,-21.653 -0.52,-9.55 -1.152,-16.746 -1.926,-21.648 -2.5,-15.488 -10.379,-22.16 -23.609,-20.02 -12.856,2.059 -18.418,9.649 -16.731,22.762 l 3.242,20.176 c 1.563,12.305 -3.808,23.906 -16.113,34.902 -12.305,10.969 -27.668,17.95 -46.086,20.918 -18.844,3.028 -35.375,0.774 -49.613,-6.758 -14.242,-7.527 -22.504,-18.425 -24.809,-32.703 -4.187,-26.086 11.293,-44.464 46.504,-55.168 l 34.793,-10.613 c 68,-20.578 98.117,-54.922 90.371,-103.008 -4.734,-29.347 -19.746,-51.3 -45.015,-65.84 -25.285,-14.523 -56.008,-18.886 -92.176,-13.058 -33.731,5.441 -61.434,19.746 -83.149,42.883 -0.66,-4.075 -1.273,-7.95 -1.871,-11.614 -2.367,-14.675 -10.48,-20.886 -24.339,-18.652 -15.071,2.422 -21.258,12.004 -18.579,28.711 -0.464,-2.859 2.465,7.539 8.793,31.203 1.735,5.567 3.063,11.199 3.989,16.922 1.574,9.777 2.218,19.074 1.988,27.902 -0.27,8.828 0,15.684 0.793,20.567 2.305,14.265 9.969,20.359 23.019,18.25 8.563,-1.375 13.629,-4.285 15.215,-8.719 1.578,-4.445 1.164,-15.461 -1.238,-33.047 -2.437,-17.598 4.438,-33.332 20.602,-47.238 16.16,-13.895 38.101,-23.074 65.828,-27.547 19.953,-3.215 37.297,-0.773 51.98,7.312 14.692,8.086 23.281,19.875 25.766,35.364 4.469,27.722 -14.934,47.363 -58.242,58.945 -41.266,11.25 -71.922,24.656 -91.989,40.234 -20.09,15.567 -27.691,38.426 -22.824,68.594 4.59,28.535 19.078,49.93 43.473,64.188 24.394,14.269 53.855,18.613 88.379,13.047" /><path
         id="path18"
         style="fill:#b00357;fill-opacity:1;fill-rule:nonzero;stroke:none"
         d="m 1123.56,790.895 -2.48,-120.657 c 16.57,15.676 31.68,26.504 45.35,32.5 13.66,5.977 29.8,8.977 48.43,8.977 35.63,0 64.17,-10.117 85.72,-30.332 21.53,-20.235 32.31,-46.867 32.31,-79.895 V 498.051 c 0,-24.356 0.2,-37.762 0.61,-40.235 1.64,-20.652 7.01,-30.964 16.1,-30.964 3.29,0 8.05,1.152 14.24,3.457 2.49,0.574 5.78,0.879 9.92,0.879 15.26,0 22.9,-7.032 22.9,-21.067 0,-14.043 -9.9,-21.043 -29.73,-21.043 -5.36,0 -13.21,0.606 -23.52,1.856 -17.35,2.058 -31.39,3.093 -42.12,3.093 -10.73,0 -19,-0.418 -24.78,-1.25 -17.33,-2.468 -28.06,-3.699 -32.18,-3.699 -7.45,0 -13.64,2.168 -18.59,6.492 -4.95,4.336 -7.43,9.805 -7.43,16.407 0,5.363 2.17,9.921 6.5,13.625 4.34,3.718 9.4,5.586 15.17,5.586 4.54,0 9.9,-1.047 16.1,-3.098 3.72,-1.238 7.22,-1.856 10.53,-1.856 12.39,0 18.78,13.399 19.2,40.246 0,4.95 0.41,14.649 1.24,29.11 v 60.058 c 0,42.122 -4.14,70.403 -12.44,84.864 -12,21.457 -33.15,32.187 -63.41,32.187 -32.73,0 -56.57,-11.14 -71.49,-33.437 -10.34,-15.282 -15.75,-39.844 -16.15,-73.692 v -44.597 c 0,-2.461 -0.84,-6.602 -2.48,-12.383 0,-5.363 0,-9.277 0,-11.758 0,-23.535 0.22,-37.16 0.63,-40.879 2.12,-20.234 8.28,-30.351 18.47,-30.351 3.39,0 8.18,0.925 14.34,2.781 6.14,1.867 10.71,2.805 13.69,2.805 13.58,0 20.37,-6.614 20.37,-19.786 0,-14.894 -9.14,-22.324 -27.42,-22.324 -5.83,0 -14.58,0.606 -26.2,1.856 -15.8,1.629 -29.32,2.461 -40.54,2.461 -7.06,0 -16.82,-0.618 -29.29,-1.856 -16.65,-1.641 -27.25,-2.461 -31.82,-2.461 -17.06,0 -25.57,7.645 -25.57,22.969 0,12.742 7.98,19.141 23.98,19.141 5.45,0 9.46,-0.579 11.97,-1.739 7.14,-1.738 12.19,-2.597 15.14,-2.597 6.73,0 11.25,6.277 13.56,18.875 2.31,12.597 3.68,38.3 4.09,77.101 v 110.86 c 0,61.933 -1.24,101.042 -3.71,117.363 -2.46,16.297 -8.26,24.461 -17.33,24.461 -2.9,0 -7.23,-0.614 -13.02,-1.856 -5.78,-1.25 -10.32,-1.855 -13.61,-1.855 -14.04,0 -21.07,6.594 -21.07,19.824 0,5.773 2.48,10.723 7.44,14.855 4.95,4.122 10.94,6.192 17.96,6.192 2.06,0 9.08,-0.637 21.06,-1.856 7.83,-0.839 16.31,-1.242 25.38,-1.242 3.73,0 8.88,0.508 15.49,1.535 6.6,1.036 11.36,1.563 14.24,1.563 9.5,0 14.25,-6.836 14.25,-20.52 v -1.257" /><path
         id="path20"
         style="fill:#e45e16;fill-opacity:1;fill-rule:nonzero;stroke:none"
         d="m 1032.02,208.707 c 0,-5.793 4.55,-8.672 13.68,-8.672 h 148.53 c 8.69,0 13.05,2.879 13.05,8.672 0,21.883 -8.3,40.879 -24.86,56.973 -16.58,16.101 -36.03,24.168 -58.43,24.168 -23.2,0 -44.32,-8.368 -63.38,-25.098 -19.07,-16.707 -28.59,-35.398 -28.59,-56.043 z m 224.81,-15.605 c 0,-15.641 -1.05,-25.192 -3.12,-28.688 -2.07,-3.516 -8.08,-5.254 -18,-5.254 h -197.47 c -5.38,0 -8.9,-0.722 -10.55,-2.187 -1.66,-1.426 -2.49,-3.809 -2.49,-7.149 0,-31.133 9.32,-57.0701 27.95,-77.8123 18.63,-20.7617 41.81,-31.1328 69.56,-31.1328 18.21,0 34.87,4.9414 49.98,14.8633 15.11,9.9023 24.94,22.5 29.51,37.7734 l 5.59,17.9494 c 2.88,9.922 9.72,14.883 20.47,14.883 15.33,0 22.99,-7.852 22.99,-23.535 0,-26.8364 -13.61,-50.6841 -40.88,-71.5239 C 1183.13,10.4297 1152.17,0 1117.49,0 c -43.36,0 -77.83,14.5703 -103.42,43.6719 -25.625,29.1015 -38.406,68.2231 -38.406,117.3441 0,50.386 13.633,91.254 40.866,122.632 27.25,31.368 62.76,47.071 106.53,47.071 38.8,0 70.81,-12.969 95.99,-38.887 25.18,-25.918 37.78,-58.82 37.78,-98.73" /><path
         id="path22"
         style="fill:#e45e16;fill-opacity:1;fill-rule:nonzero;stroke:none"
         d="m 1289.79,73.3789 201.9,205.3091 h -94.77 c -30.94,0 -50.36,-0.93 -58.2,-2.786 -7.85,-1.855 -11.76,-6.718 -11.76,-14.539 0,-3.312 0.39,-7.043 1.22,-11.164 2.07,-10.73 3.1,-20.847 3.1,-30.34 0,-15.695 -6.81,-23.535 -20.43,-23.535 -14.03,0 -21.06,9.082 -21.06,27.246 0,7.852 0.21,13.211 0.62,16.102 1.64,12.394 2.48,21.262 2.48,26.641 0,4.121 -0.53,10.214 -1.55,18.261 -1.03,8.047 -1.55,14.141 -1.55,18.274 0,12.781 10.28,19.199 30.81,19.199 6.56,0 15.39,-0.293 26.46,-0.82 12.73,-1.114 21.56,-1.661 26.5,-1.661 h 141.65 c 26.02,0 39.03,-9.57 39.03,-28.683 0,-8.738 -7.82,-21.016 -23.41,-36.805 L 1331.28,50.1563 h 147.4 c 24.35,0 36.53,7.1679 36.53,21.4648 v 11.9922 c 0,7.1484 -0.41,13.2617 -1.24,18.3207 -0.83,15.957 -1.24,23.535 -1.24,22.695 0,7.168 2.07,13.164 6.2,17.988 4.14,4.844 9.3,7.266 15.48,7.266 13.22,0 19.83,-7.852 19.83,-23.535 0,-7.032 -0.42,-14.239 -1.25,-21.68 -1.65,-14.8633 -2.46,-25.6055 -2.46,-32.2071 0,-4.5507 0.6,-11.1328 1.85,-19.8046 1.24,-8.6915 1.86,-15.293 1.86,-19.8243 0,-16.0937 -9.11,-23.94528 -27.32,-23.53512 H 1310.3 c -10.33,0 -18.82,3.10542 -25.44,9.31642 -6.62,6.2305 -9.93,14.1211 -9.93,23.6523 0,10.7813 4.96,21.1524 14.86,31.1133" /><path
         id="path24"
         style="fill:#e45e16;fill-opacity:1;fill-rule:nonzero;stroke:none"
         d="M 894.375,200.035 H 745.824 c -9.105,0 -13.66,2.879 -13.66,8.672 0,20.645 9.52,39.336 28.582,56.043 5.942,5.227 12.106,9.523 18.465,13.117 15.019,-8.488 31.844,-14.355 50.574,-17.363 20.996,-3.399 40.11,-3.234 57.434,0.242 13.418,-15.008 20.203,-32.344 20.203,-52.039 0,-5.793 -4.356,-8.672 -13.047,-8.672 z m 24.805,91.797 c -5.918,6.094 -12.239,11.406 -18.914,16.063 -18.528,-4.473 -39.231,-4.903 -62.137,-1.219 -20.055,3.242 -37.938,9.676 -53.754,19.187 -26.395,-6.777 -49.031,-20.73 -67.691,-42.215 -27.258,-31.378 -40.871,-72.246 -40.871,-122.632 0,-49.121 12.781,-88.2426 38.386,-117.3441 C 739.797,14.5703 774.277,0 817.633,0 c 34.672,0 65.637,10.4297 92.887,31.2891 27.234,20.8398 40.867,44.6875 40.867,71.5239 0,15.683 -7.664,23.535 -22.989,23.535 -10.742,0 -17.585,-4.961 -20.476,-14.883 L 902.324,93.5156 C 897.766,78.2422 887.949,65.6445 872.82,55.7422 857.703,45.8203 841.063,40.8789 822.848,40.8789 c -27.743,0 -50.922,10.3711 -69.555,31.1328 -18.629,20.7422 -27.949,46.6793 -27.949,77.8123 0,3.34 0.824,5.723 2.476,7.149 1.657,1.465 5.188,2.187 10.571,2.187 h 197.461 c 9.918,0 15.933,1.738 18.003,5.254 2.075,3.496 3.118,13.047 3.118,28.688 0,39.91 -12.61,72.812 -37.793,98.73" /><path
         id="path26"
         style="fill:#e45e16;fill-opacity:1;fill-rule:nonzero;stroke:none"
         d="m 425.188,305.543 v -17.824 c 25.023,31.679 58.359,47.531 100.054,47.531 22.528,0 43.785,-5.723 63.789,-17.207 20.008,-11.465 33.559,-25.742 40.641,-42.832 5.851,-14.172 8.762,-32.727 8.762,-55.645 V 100.742 c 0,-17.9295 0.218,-28.574 0.629,-31.8943 2.089,-14.1797 7.699,-21.2696 16.894,-21.2696 3.738,0 8.645,0.5274 14.688,1.5625 6.043,1.0352 10.316,1.5625 12.816,1.5625 5.418,0 10.102,-1.875 14.078,-5.625 3.961,-3.75 5.945,-8.3398 5.945,-13.75 0,-6.2695 -2.504,-11.4843 -7.504,-15.6445 -5.019,-4.1602 -11.058,-6.25001 -18.148,-6.25001 -5.828,0 -15.422,0.83981 -28.766,2.50001 -13.347,1.6602 -25.847,2.5 -37.507,2.5 -10.868,0 -19.805,-0.4102 -26.895,-1.25 -20.863,-2.5 -31.894,-3.75001 -33.156,-3.75001 -16.672,0 -25.004,7.30471 -25.004,21.89451 0,12.9102 7.223,19.375 21.68,19.375 3.394,0 7.214,-0.4297 11.472,-1.25 8.071,-1.6797 13.164,-2.5 15.305,-2.5 10.199,0 15.715,11.4649 16.578,34.3946 V 198.91 c 0,22.11 -1.047,37.317 -3.117,45.656 -3.742,15.84 -11.84,28.133 -24.289,36.895 -13.719,9.59 -29.285,14.394 -46.723,14.394 -33.234,0 -57.113,-11.894 -71.64,-35.656 -9.969,-16.25 -14.95,-43.984 -14.95,-83.168 V 93.8477 c 0,-18.3399 1.254,-30.8399 3.743,-37.5 2.515,-6.6797 7.085,-10.0196 13.757,-10.0196 3.328,0 7.918,0.7227 13.766,2.2071 5.828,1.4257 10.629,2.1679 14.391,2.1679 12.914,0 19.375,-6.9726 19.375,-20.957 0,-13.5547 -8.332,-20.31251 -25.008,-20.31251 -3.344,0 -14.172,1.25001 -32.524,3.75001 -9.175,1.25 -19.394,1.875 -30.632,1.875 -8.766,0 -20.442,-0.8398 -35.032,-2.5 -18.343,-2.0898 -28.765,-3.12501 -31.265,-3.12501 -17.52,0 -26.262,7.08981 -26.262,21.25001 0,13.3398 6.789,20.0195 20.383,20.0195 2.121,0 6.047,-0.625 11.777,-1.875 5.731,-1.25 11.359,-1.875 16.875,-1.875 12.75,0 19.32,12.0899 19.758,36.2696 V 250.199 c -0.863,14.16 -2.668,23.86 -5.414,29.082 -2.77,5.207 -7.555,7.813 -14.344,7.813 -2.969,0 -7.324,-0.625 -13.051,-1.875 -5.746,-1.258 -10.082,-1.864 -13.05,-1.864 -15.297,0 -22.934,6.758 -22.934,20.313 0,13.965 9.375,20.957 28.133,20.957 2.504,0 4.59,-0.215 6.258,-0.637 l 23.136,-2.5 c 6.66,0 12.504,0.52 17.504,1.563 10.852,1.035 16.481,1.574 16.895,1.574 12.086,0 18.133,-6.367 18.133,-19.082" /><path
         id="path28"
         style="fill:#e45e16;fill-opacity:1;fill-rule:nonzero;stroke:none"
         d="m 1603.68,277.047 c 0,-3.215 1,-4.805 2.98,-4.805 0.16,0 0.38,0.039 0.73,0.117 0.35,0 0.6,0 0.76,0 0.57,0.332 1.24,0.477 1.94,0.477 1.73,0 2.61,-0.926 2.61,-2.813 0,-1.894 -1.17,-2.851 -3.43,-2.851 -0.5,0 -0.83,0.051 -1,0.129 l -3.47,0.469 c -0.57,0.125 -2.01,0.136 -4.29,0.136 -2.45,0 -3.98,-0.011 -4.58,-0.136 l -3.44,-0.469 c -0.21,-0.078 -0.55,-0.129 -0.98,-0.129 -2.32,0 -3.46,0.957 -3.46,2.851 0,1.887 0.85,2.813 2.6,2.813 0.73,0 1.34,-0.145 1.84,-0.477 0.24,0 0.53,0 0.88,0 0.33,-0.078 0.58,-0.117 0.72,-0.117 1.97,0 2.95,1.59 2.95,4.805 v 27.949 c 0,3.055 -1.52,4.59 -4.55,4.59 h -2.24 c -3.02,0 -4.52,-1.504 -4.52,-4.504 0,-0.652 0.03,-1.387 0.1,-2.176 l 0.23,-2.551 v -1.699 c 0,-3.152 -0.99,-4.746 -3.06,-4.746 -1.98,0 -2.95,1.25 -2.95,3.653 0,0.664 0.04,1.652 0.1,3.046 0,0.664 0.05,1.477 0.13,2.461 0.07,0.715 0.12,1.262 0.12,1.68 0,0.742 -0.07,1.836 -0.2,3.301 -0.11,1.445 -0.15,2.558 -0.15,3.281 0,2.188 1.01,3.281 3.07,3.281 0.14,0 0.76,0 1.71,0 1,-0.078 1.88,-0.125 2.69,-0.125 0.28,0 2.15,-0.05 5.68,-0.234 2.19,-0.078 4.86,-0.129 7.86,-0.129 2.79,0 5.21,0.051 7.24,0.129 6.11,0.234 9.11,0.359 8.97,0.359 2.51,0 3.81,-1.054 3.81,-3.211 0,0.106 -0.05,-0.82 -0.12,-2.695 -0.24,-2.871 -0.35,-4.453 -0.35,-4.68 0,-0.73 0.09,-1.882 0.23,-3.457 0.17,-1.57 0.24,-2.695 0.24,-3.457 0,-2.117 -1.03,-3.203 -3.09,-3.203 -2.03,0 -3.06,1.32 -3.06,3.965 0,0.051 0.01,0.43 0.08,1.094 0,0.586 0,1.054 0,1.476 l 0.28,2.715 c 0.12,0.906 0.12,1.57 0.12,1.981 0,2.949 -1.73,4.445 -5.16,4.445 h -2.03 c -2.87,0 -4.37,-1.398 -4.54,-4.211 v -28.328" /><path
         id="path30"
         style="fill:none;stroke:#e45e16;stroke-width:2.56732988;stroke-linecap:butt;stroke-linejoin:miter;stroke-miterlimit:4;stroke-dasharray:none;stroke-opacity:1"
         d="m 1603.68,277.047 c 0,-3.215 1,-4.805 2.98,-4.805 0.16,0 0.38,0.039 0.73,0.117 0.35,0 0.6,0 0.76,0 0.57,0.332 1.24,0.477 1.94,0.477 1.73,0 2.61,-0.926 2.61,-2.813 0,-1.894 -1.17,-2.851 -3.43,-2.851 -0.5,0 -0.83,0.051 -1,0.129 l -3.47,0.469 c -0.57,0.125 -2.01,0.136 -4.29,0.136 -2.45,0 -3.98,-0.011 -4.58,-0.136 l -3.44,-0.469 c -0.21,-0.078 -0.55,-0.129 -0.98,-0.129 -2.32,0 -3.46,0.957 -3.46,2.851 0,1.887 0.85,2.813 2.6,2.813 0.73,0 1.34,-0.145 1.84,-0.477 0.24,0 0.53,0 0.88,0 0.33,-0.078 0.58,-0.117 0.72,-0.117 1.97,0 2.95,1.59 2.95,4.805 v 27.949 c 0,3.055 -1.52,4.59 -4.55,4.59 h -2.24 c -3.02,0 -4.52,-1.504 -4.52,-4.504 0,-0.652 0.03,-1.387 0.1,-2.176 l 0.23,-2.551 v -1.699 c 0,-3.152 -0.99,-4.746 -3.06,-4.746 -1.98,0 -2.95,1.25 -2.95,3.653 0,0.664 0.04,1.652 0.1,3.046 0,0.664 0.05,1.477 0.13,2.461 0.07,0.715 0.12,1.262 0.12,1.68 0,0.742 -0.07,1.836 -0.2,3.301 -0.11,1.445 -0.15,2.558 -0.15,3.281 0,2.188 1.01,3.281 3.07,3.281 0.14,0 0.76,0 1.71,0 1,-0.078 1.88,-0.125 2.69,-0.125 0.28,0 2.15,-0.05 5.68,-0.234 2.19,-0.078 4.86,-0.129 7.86,-0.129 2.79,0 5.21,0.051 7.24,0.129 6.11,0.234 9.11,0.359 8.97,0.359 2.51,0 3.81,-1.054 3.81,-3.211 0,0.106 -0.05,-0.82 -0.12,-2.695 -0.24,-2.871 -0.35,-4.453 -0.35,-4.68 0,-0.73 0.09,-1.882 0.23,-3.457 0.17,-1.57 0.24,-2.695 0.24,-3.457 0,-2.117 -1.03,-3.203 -3.09,-3.203 -2.03,0 -3.06,1.32 -3.06,3.965 0,0.051 0.01,0.43 0.08,1.094 0,0.586 0,1.054 0,1.476 l 0.28,2.715 c 0.12,0.906 0.12,1.57 0.12,1.981 0,2.949 -1.73,4.445 -5.16,4.445 h -2.03 c -2.87,0 -4.37,-1.398 -4.54,-4.211 z" /><path
         id="path32"
         style="fill:#e45e16;fill-opacity:1;fill-rule:nonzero;stroke:none"
         d="m 1649.26,309.223 10.18,-33.653 11.38,35.969 c 0.63,2.039 1.82,3.074 3.44,3.074 h 0.39 c 0.57,0 1.58,-0.078 3.07,-0.3 1.48,-0.188 2.64,-0.313 3.46,-0.313 1.71,0 2.8,0.059 3.19,0.125 l 2.45,0.488 h 0.88 c 2.35,0 3.59,-0.957 3.59,-2.832 0,-1.718 -0.88,-2.558 -2.6,-2.558 -0.65,0 -1.28,0.078 -1.87,0.215 -0.19,0 -0.5,0.031 -0.74,0.148 -0.31,0 -0.57,0 -0.72,0 -2.07,0 -3.08,-1.641 -3.08,-4.805 v -27.636 c 0,-3.165 1.01,-4.786 3.08,-4.786 0.41,0 0.96,0.079 1.7,0.243 0.76,0.175 1.31,0.234 1.63,0.234 1.72,0 2.6,-0.906 2.6,-2.762 0,-1.926 -1.11,-2.902 -3.33,-2.902 -0.43,0 -0.79,0.051 -1.14,0.129 l -3.45,0.39 c -1.52,0.145 -3.05,0.215 -4.53,0.215 -1.91,0 -3.98,-0.136 -6.16,-0.468 -1.09,-0.157 -1.91,-0.266 -2.49,-0.266 -1.96,0 -2.96,0.957 -2.96,2.851 0,1.887 1.07,2.813 3.19,2.813 h 1.16 l 1.72,-0.477 c 1.05,0 1.74,0.77 2.12,2.352 0.4,1.555 0.62,4.707 0.68,9.465 0,1.66 0.05,3.867 0.13,6.679 l 0.14,6.161 v 11.816 l -12.71,-39.051 c -0.61,-2.011 -2.08,-2.988 -4.3,-2.988 -2.25,0 -3.66,1.004 -4.32,2.996 l -12.44,39.434 0.36,-31.797 c 0,-3.067 0.78,-4.59 2.37,-4.59 0.65,0 1.36,0 2.04,0 0.22,0 0.48,0 0.91,0 2.05,0 3.07,-0.926 3.07,-2.813 0,-1.894 -1.07,-2.851 -3.21,-2.851 -0.49,0 -0.99,0.051 -1.45,0.129 l -3.26,0.469 c -0.47,0.125 -1.84,0.136 -4.05,0.136 -2.28,0 -3.69,-0.011 -4.18,-0.136 l -2.96,-0.469 c -0.17,-0.078 -0.45,-0.129 -0.85,-0.129 -2.47,0 -3.71,0.976 -3.71,2.988 0,1.797 0.85,2.676 2.58,2.676 0.68,0 1.32,-0.145 1.98,-0.477 0.16,0 0.41,0 0.76,0 0.31,-0.078 0.53,-0.117 0.72,-0.117 1.97,0 2.95,1.59 2.95,4.805 v 4.805 l 0.12,6.14 v 5.801 l -0.12,6.145 v 4.843 c 0,3.164 -1.03,4.805 -3.1,4.805 -0.06,0 -0.26,0 -0.57,0 -0.35,-0.117 -0.6,-0.148 -0.76,-0.148 -0.57,-0.137 -1.23,-0.215 -1.98,-0.215 -1.73,0 -2.58,0.84 -2.58,2.558 0,1.875 1.21,2.832 3.56,2.832 h 1 l 2.34,-0.359 c 1.06,-0.137 2.19,-0.254 3.32,-0.254 1.48,0 2.74,0.125 3.86,0.371 1.8,0.164 2.79,0.242 3.03,0.242 1.9,0 3.23,-1.199 3.95,-3.672 l 0.52,-1.718" /><path
         id="path34"
         style="fill:none;stroke:#e45e16;stroke-width:2.56732988;stroke-linecap:butt;stroke-linejoin:miter;stroke-miterlimit:4;stroke-dasharray:none;stroke-opacity:1"
         d="m 1649.26,309.223 10.18,-33.653 11.38,35.969 c 0.63,2.039 1.82,3.074 3.44,3.074 h 0.39 c 0.57,0 1.58,-0.078 3.07,-0.3 1.48,-0.188 2.64,-0.313 3.46,-0.313 1.71,0 2.8,0.059 3.19,0.125 l 2.45,0.488 h 0.88 c 2.35,0 3.59,-0.957 3.59,-2.832 0,-1.718 -0.88,-2.558 -2.6,-2.558 -0.65,0 -1.28,0.078 -1.87,0.215 -0.19,0 -0.5,0.031 -0.74,0.148 -0.31,0 -0.57,0 -0.72,0 -2.07,0 -3.08,-1.641 -3.08,-4.805 v -27.636 c 0,-3.165 1.01,-4.786 3.08,-4.786 0.41,0 0.96,0.079 1.7,0.243 0.76,0.175 1.31,0.234 1.63,0.234 1.72,0 2.6,-0.906 2.6,-2.762 0,-1.926 -1.11,-2.902 -3.33,-2.902 -0.43,0 -0.79,0.051 -1.14,0.129 l -3.45,0.39 c -1.52,0.145 -3.05,0.215 -4.53,0.215 -1.91,0 -3.98,-0.136 -6.16,-0.468 -1.09,-0.157 -1.91,-0.266 -2.49,-0.266 -1.96,0 -2.96,0.957 -2.96,2.851 0,1.887 1.07,2.813 3.19,2.813 h 1.16 l 1.72,-0.477 c 1.05,0 1.74,0.77 2.12,2.352 0.4,1.555 0.62,4.707 0.68,9.465 0,1.66 0.05,3.867 0.13,6.679 l 0.14,6.161 v 11.816 l -12.71,-39.051 c -0.61,-2.011 -2.08,-2.988 -4.3,-2.988 -2.25,0 -3.66,1.004 -4.32,2.996 l -12.44,39.434 0.36,-31.797 c 0,-3.067 0.78,-4.59 2.37,-4.59 0.65,0 1.36,0 2.04,0 0.22,0 0.48,0 0.91,0 2.05,0 3.07,-0.926 3.07,-2.813 0,-1.894 -1.07,-2.851 -3.21,-2.851 -0.49,0 -0.99,0.051 -1.45,0.129 l -3.26,0.469 c -0.47,0.125 -1.84,0.136 -4.05,0.136 -2.28,0 -3.69,-0.011 -4.18,-0.136 l -2.96,-0.469 c -0.17,-0.078 -0.45,-0.129 -0.85,-0.129 -2.47,0 -3.71,0.976 -3.71,2.988 0,1.797 0.85,2.676 2.58,2.676 0.68,0 1.32,-0.145 1.98,-0.477 0.16,0 0.41,0 0.76,0 0.31,-0.078 0.53,-0.117 0.72,-0.117 1.97,0 2.95,1.59 2.95,4.805 v 4.805 l 0.12,6.14 v 5.801 l -0.12,6.145 v 4.843 c 0,3.164 -1.03,4.805 -3.1,4.805 -0.06,0 -0.26,0 -0.57,0 -0.35,-0.117 -0.6,-0.148 -0.76,-0.148 -0.57,-0.137 -1.23,-0.215 -1.98,-0.215 -1.73,0 -2.58,0.84 -2.58,2.558 0,1.875 1.21,2.832 3.56,2.832 h 1 l 2.34,-0.359 c 1.06,-0.137 2.19,-0.254 3.32,-0.254 1.48,0 2.74,0.125 3.86,0.371 1.8,0.164 2.79,0.242 3.03,0.242 1.9,0 3.23,-1.199 3.95,-3.672 z" /><path
         id="path36"
         style="fill:#b00357;fill-opacity:1;fill-rule:nonzero;stroke:none"
         d="m 235.605,525.746 c 0,-19.258 -0.449,-32.598 -1.308,-40.027 -2.652,-21.446 -12.207,-39.278 -28.668,-53.489 -16.457,-14.226 -35.883,-21.328 -58.289,-21.328 -29.86,0 -53.1252,11.809 -69.8205,35.442 -16.6757,23.621 -25.0039,56.648 -25.0039,99.09 0,40.695 8.1133,72.402 24.3594,95.156 16.2461,22.734 38.867,34.121 67.832,34.121 18.445,0 35.141,-5.469 50.059,-16.395 17.554,-12.687 29.199,-29.765 34.914,-51.191 3.078,-12.695 5.047,-33.691 5.925,-63.008 z M 315.77,221.48 c -2.899,-0.058 -5.688,-0.195 -8.625,-0.996 -5.243,-1.437 -9.508,-1.242 -12.387,-1.242 -5.754,0 -7.309,5.86 -8.11,15.293 -0.316,42.11 -0.187,110.235 -0.515,129.778 l -1.309,93.835 V 583.5 l 1.309,78.086 1.305,13.789 c 0,22.746 -7.434,34.121 -22.305,34.121 -14.875,0 -22.305,-9.414 -22.305,-28.211 0,0.43 0.43,-3.722 1.309,-12.472 -27.129,32.804 -61.028,49.218 -101.735,49.218 -43.7497,0 -78.4137,-15.652 -103.9997,-46.922 C 12.8008,639.809 0,597.484 0,544.117 0,490.738 13.3008,447.973 39.9258,415.816 c 26.5976,-32.16 61.7222,-48.234 105.3552,-48.234 35.774,0 65.879,12.461 90.324,37.402 v -29.519 c 0,-25.801 1.243,-159.61 0.231,-175.168 -0.02,-0.34 0.086,-0.633 0.094,-0.965 l -0.016,-0.519 c 0,-11.981 5.781,-17.958 17.356,-17.958 3.71,0 8.046,0.606 13,1.856 7.437,0.809 11.757,1.238 13.003,1.238 2.481,0 8.872,-0.633 19.207,-1.863 7.004,-0.82 12.375,-1.406 16.094,-1.231 9.313,0.438 20.274,7.715 20.274,21.551 0,13.41 -10.555,19.289 -19.078,19.074" /></g></g></svg>