<?xml version="1.0" encoding="UTF-8" standalone="no"?>
<svg
   xmlns:dc="http://purl.org/dc/elements/1.1/"
   xmlns:cc="http://creativecommons.org/ns#"
   xmlns:rdf="http://www.w3.org/1999/02/22-rdf-syntax-ns#"
   xmlns:svg="http://www.w3.org/2000/svg"
   xmlns="http://www.w3.org/2000/svg"
   viewBox="0 0 225.67999 132.52"
   height="132.52"
   width="225.67999"
   xml:space="preserve"
   id="svg2"
   version="1.1"><metadata
     id="metadata8"><rdf:RDF><cc:Work
         rdf:about=""><dc:format>image/svg+xml</dc:format><dc:type
           rdf:resource="http://purl.org/dc/dcmitype/StillImage" /></cc:Work></rdf:RDF></metadata><defs
     id="defs6" /><g
     transform="matrix(1.3333333,0,0,-1.3333333,0,132.52)"
     id="g10"><g
       transform="scale(0.1)"
       id="g12"><path
         id="path14"
         style="fill:#b00357;fill-opacity:1;fill-rule:nonzero;stroke:none"
         d="m 592.219,588.266 v 19.199 c -21.883,-30.156 -54.289,-45.223 -97.231,-45.223 -48.718,0 -82.586,15.067 -101.566,45.223 -8.262,13.195 -12.797,28.683 -13.609,46.445 -0.434,8.664 -0.629,26.828 -0.629,54.492 v 51.399 c 0,56.551 -6.043,84.844 -18.133,84.844 -2.5,0 -6.461,-0.305 -11.875,-0.93 -5.43,-0.613 -9.606,-0.926 -12.52,-0.926 -14.59,0 -21.875,6.707 -21.875,20.117 0,13.016 8.875,19.532 26.629,19.532 4.121,0 10.215,-0.54 18.262,-1.563 8.055,-1.027 14.144,-1.543 18.266,-1.543 3.726,0 10.125,0.613 19.195,1.856 6.195,0.82 9.707,1.25 10.535,1.25 12.801,0 19.207,-7.852 19.207,-23.547 v -53.262 l -1.871,-45.828 v -40.246 c 0,-35.926 2.902,-61.727 8.68,-77.41 9.492,-26.016 32.211,-39.016 68.113,-39.016 17.754,0 33.453,4.023 47.082,12.07 13.609,8.047 23.117,18.684 28.48,31.895 6.61,16.094 9.907,46.652 9.907,91.66 v 34.055 c 0,24.773 0,38.183 0,40.254 -2.071,19.824 -7.438,29.726 -16.098,29.726 -4.559,0 -8.262,0 -11.148,0 h -7.43 c -14.461,0 -21.684,6.199 -21.684,18.613 0,14.012 8.047,21.036 24.16,21.036 3.711,0 9.391,-0.43 17.028,-1.25 7.633,-0.833 13.316,-1.243 17.043,-1.243 3.297,0 8.246,0.41 14.851,1.243 6.61,0.82 11.559,1.25 14.856,1.25 12.386,0 18.582,-6.641 18.582,-19.875 0,-5.801 -0.414,-10.352 -1.227,-13.653 -2.09,-15.73 -3.113,-38.906 -3.113,-69.519 v -95.586 c 0,-25.254 0.215,-39.309 0.629,-42.207 2.051,-21.934 7.832,-32.91 17.34,-32.91 2.883,0 7.019,0.417 12.386,1.25 5.368,0.82 9.489,1.238 12.387,1.238 14.027,0 21.047,-6.727 21.047,-20.125 0,-13.84 -8.66,-20.742 -25.996,-20.742 -3.731,0 -9.094,0.41 -16.098,1.23 -10.332,1.231 -16.73,1.863 -19.211,1.863 -1.246,0 -5.566,-0.429 -13.004,-1.238 -4.949,-1.25 -9.285,-1.855 -12.996,-1.855 -11.578,0 -17.351,5.976 -17.351,17.957" /><path
         id="path16"
         style="fill:#b00357;fill-opacity:1;fill-rule:nonzero;stroke:none"
         d="m 885.723,849.125 c 27.226,-4.383 48.828,-15.184 64.804,-32.391 l 0.403,2.45 c 2.429,15.078 10.164,21.562 23.191,19.464 13.469,-2.168 19.133,-9.777 17.031,-22.824 -0.382,-2.441 -1.711,-8.496 -3.972,-18.172 -2.668,-7.941 -4.66,-15.968 -5.969,-24.121 -0.789,-4.894 -1.438,-12.109 -1.914,-21.652 -0.52,-9.551 -1.152,-16.746 -1.926,-21.649 -2.5,-15.488 -10.379,-22.16 -23.609,-20.019 -12.856,2.059 -18.418,9.648 -16.731,22.762 l 3.242,20.175 c 1.563,12.305 -3.808,23.907 -16.113,34.903 -12.305,10.969 -27.668,17.949 -46.086,20.918 -18.844,3.027 -35.375,0.773 -49.613,-6.758 -14.242,-7.527 -22.504,-18.426 -24.809,-32.703 -4.187,-26.086 11.293,-44.465 46.504,-55.168 l 34.793,-10.613 c 68,-20.579 98.117,-54.922 90.371,-103.008 -4.734,-29.348 -19.746,-51.301 -45.015,-65.84 -25.285,-14.524 -56.008,-18.887 -92.176,-13.059 -33.731,5.442 -61.434,19.746 -83.149,42.883 -0.66,-4.074 -1.273,-7.949 -1.871,-11.613 -2.367,-14.676 -10.48,-20.887 -24.339,-18.652 -15.071,2.421 -21.258,12.003 -18.579,28.71 -0.464,-2.859 2.465,7.54 8.793,31.204 1.735,5.566 3.063,11.199 3.989,16.921 1.574,9.778 2.218,19.075 1.988,27.903 -0.27,8.828 0,15.683 0.793,20.566 2.305,14.266 9.969,20.36 23.019,18.25 8.563,-1.375 13.629,-4.285 15.215,-8.719 1.578,-4.445 1.164,-15.46 -1.238,-33.046 -2.437,-17.598 4.438,-33.332 20.602,-47.239 16.16,-13.894 38.101,-23.074 65.828,-27.547 19.953,-3.214 37.297,-0.773 51.98,7.313 14.692,8.086 23.281,19.875 25.766,35.363 4.469,27.723 -14.934,47.363 -58.242,58.946 -41.266,11.25 -71.922,24.656 -91.989,40.234 -20.09,15.566 -27.691,38.426 -22.824,68.594 4.59,28.535 19.078,49.929 43.473,64.187 24.394,14.27 53.855,18.613 88.379,13.047" /><path
         id="path18"
         style="fill:#b00357;fill-opacity:1;fill-rule:nonzero;stroke:none"
         d="m 1123.56,972.125 -2.48,-120.656 c 16.57,15.676 31.68,26.504 45.35,32.5 13.66,5.976 29.8,8.976 48.43,8.976 35.63,0 64.17,-10.117 85.72,-30.332 21.53,-20.234 32.31,-46.867 32.31,-79.894 V 679.281 c 0,-24.355 0.2,-37.761 0.61,-40.234 1.64,-20.652 7.01,-30.965 16.1,-30.965 3.29,0 8.05,1.152 14.24,3.457 2.49,0.574 5.78,0.879 9.92,0.879 15.26,0 22.9,-7.031 22.9,-21.066 0,-14.043 -9.9,-21.043 -29.73,-21.043 -5.36,0 -13.21,0.605 -23.52,1.855 -17.35,2.059 -31.39,3.094 -42.12,3.094 -10.73,0 -19,-0.418 -24.78,-1.25 -17.33,-2.469 -28.06,-3.699 -32.18,-3.699 -7.45,0 -13.64,2.168 -18.59,6.492 -4.95,4.336 -7.43,9.804 -7.43,16.406 0,5.363 2.17,9.922 6.5,13.625 4.34,3.719 9.4,5.586 15.17,5.586 4.54,0 9.9,-1.047 16.1,-3.098 3.72,-1.238 7.22,-1.855 10.53,-1.855 12.39,0 18.78,13.398 19.2,40.246 0,4.949 0.41,14.648 1.24,29.109 v 60.059 c 0,42.121 -4.14,70.402 -12.44,84.863 -12,21.457 -33.15,32.188 -63.41,32.188 -32.73,0 -56.57,-11.141 -71.49,-33.438 -10.34,-15.281 -15.75,-39.844 -16.15,-73.691 v -44.598 c 0,-2.461 -0.84,-6.601 -2.48,-12.383 0,-5.363 0,-9.277 0,-11.757 0,-23.536 0.22,-37.161 0.63,-40.879 2.12,-20.235 8.28,-30.352 18.47,-30.352 3.39,0 8.18,0.926 14.34,2.781 6.14,1.867 10.71,2.805 13.69,2.805 13.58,0 20.37,-6.613 20.37,-19.785 0,-14.895 -9.14,-22.324 -27.42,-22.324 -5.83,0 -14.58,0.605 -26.2,1.855 -15.8,1.629 -29.32,2.461 -40.54,2.461 -7.06,0 -16.82,-0.617 -29.29,-1.855 -16.65,-1.641 -27.25,-2.461 -31.82,-2.461 -17.06,0 -25.57,7.644 -25.57,22.968 0,12.743 7.98,19.141 23.98,19.141 5.45,0 9.46,-0.578 11.97,-1.738 7.14,-1.739 12.19,-2.598 15.14,-2.598 6.73,0 11.25,6.277 13.56,18.875 2.31,12.598 3.68,38.301 4.09,77.102 v 110.859 c 0,61.934 -1.24,101.043 -3.71,117.363 -2.46,16.297 -8.26,24.461 -17.33,24.461 -2.9,0 -7.23,-0.613 -13.02,-1.855 -5.78,-1.25 -10.32,-1.856 -13.61,-1.856 -14.04,0 -21.07,6.594 -21.07,19.824 0,5.774 2.48,10.723 7.44,14.856 4.95,4.121 10.94,6.191 17.96,6.191 2.06,0 9.08,-0.636 21.06,-1.855 7.83,-0.84 16.31,-1.242 25.38,-1.242 3.73,0 8.88,0.508 15.49,1.535 6.6,1.035 11.36,1.562 14.24,1.562 9.5,0 14.25,-6.836 14.25,-20.519 v -1.258" /><path
         id="path20"
         style="fill:#e45e16;fill-opacity:1;fill-rule:nonzero;stroke:none"
         d="m 1032.02,389.938 c 0,-5.793 4.55,-8.672 13.68,-8.672 h 148.53 c 8.69,0 13.05,2.879 13.05,8.672 0,21.882 -8.3,40.878 -24.86,56.972 -16.58,16.102 -36.03,24.168 -58.43,24.168 -23.2,0 -44.32,-8.367 -63.38,-25.098 -19.07,-16.707 -28.59,-35.398 -28.59,-56.042 z m 224.81,-15.606 c 0,-15.641 -1.05,-25.191 -3.12,-28.687 -2.07,-3.516 -8.08,-5.254 -18,-5.254 h -197.47 c -5.38,0 -8.9,-0.723 -10.55,-2.188 -1.66,-1.426 -2.49,-3.808 -2.49,-7.148 0,-31.133 9.32,-57.071 27.95,-77.813 18.63,-20.762 41.81,-31.133 69.56,-31.133 18.21,0 34.87,4.942 49.98,14.864 15.11,9.902 24.94,22.5 29.51,37.773 l 5.59,17.949 c 2.88,9.922 9.72,14.883 20.47,14.883 15.33,0 22.99,-7.851 22.99,-23.535 0,-26.836 -13.61,-50.684 -40.88,-71.523 -27.24,-20.86 -58.2,-31.29 -92.88,-31.29 -43.36,0 -77.83,14.571 -103.42,43.672 -25.625,29.102 -38.406,68.223 -38.406,117.344 0,50.387 13.633,91.254 40.866,122.633 27.25,31.367 62.76,47.07 106.53,47.07 38.8,0 70.81,-12.969 95.99,-38.886 25.18,-25.918 37.78,-58.821 37.78,-98.731" /><path
         id="path22"
         style="fill:#e45e16;fill-opacity:1;fill-rule:nonzero;stroke:none"
         d="m 1289.79,254.609 201.9,205.309 h -94.77 c -30.94,0 -50.36,-0.93 -58.2,-2.785 -7.85,-1.856 -11.76,-6.719 -11.76,-14.539 0,-3.313 0.39,-7.043 1.22,-11.164 2.07,-10.731 3.1,-20.848 3.1,-30.34 0,-15.695 -6.81,-23.535 -20.43,-23.535 -14.03,0 -21.06,9.082 -21.06,27.246 0,7.851 0.21,13.211 0.62,16.101 1.64,12.395 2.48,21.262 2.48,26.641 0,4.121 -0.53,10.215 -1.55,18.262 -1.03,8.047 -1.55,14.14 -1.55,18.273 0,12.781 10.28,19.199 30.81,19.199 6.56,0 15.39,-0.293 26.46,-0.82 12.73,-1.113 21.56,-1.66 26.5,-1.66 h 141.65 c 26.02,0 39.03,-9.57 39.03,-28.684 0,-8.738 -7.82,-21.015 -23.41,-36.804 L 1331.28,231.387 h 147.4 c 24.35,0 36.53,7.168 36.53,21.465 v 11.992 c 0,7.148 -0.41,13.261 -1.24,18.32 -0.83,15.957 -1.24,23.535 -1.24,22.695 0,7.168 2.07,13.164 6.2,17.989 4.14,4.843 9.3,7.265 15.48,7.265 13.22,0 19.83,-7.851 19.83,-23.535 0,-7.031 -0.42,-14.238 -1.25,-21.68 -1.65,-14.863 -2.46,-25.605 -2.46,-32.207 0,-4.55 0.6,-11.132 1.85,-19.804 1.24,-8.692 1.86,-15.293 1.86,-19.824 0,-16.094 -9.11,-23.946 -27.32,-23.536 H 1310.3 c -10.33,0 -18.82,3.106 -25.44,9.317 -6.62,6.23 -9.93,14.121 -9.93,23.652 0,10.781 4.96,21.152 14.86,31.113" /><path
         id="path24"
         style="fill:#e45e16;fill-opacity:1;fill-rule:nonzero;stroke:none"
         d="M 894.375,381.266 H 745.824 c -9.105,0 -13.66,2.879 -13.66,8.672 0,20.644 9.52,39.335 28.582,56.042 5.942,5.227 12.106,9.524 18.465,13.118 15.019,-8.489 31.844,-14.356 50.574,-17.364 20.996,-3.398 40.11,-3.234 57.434,0.243 13.418,-15.008 20.203,-32.344 20.203,-52.039 0,-5.793 -4.356,-8.672 -13.047,-8.672 z m 24.805,91.797 c -5.918,6.093 -12.239,11.406 -18.914,16.062 -18.528,-4.473 -39.231,-4.902 -62.137,-1.219 -20.055,3.242 -37.938,9.676 -53.754,19.188 -26.395,-6.778 -49.031,-20.731 -67.691,-42.215 -27.258,-31.379 -40.871,-72.246 -40.871,-122.633 0,-49.121 12.781,-88.242 38.386,-117.344 25.598,-29.101 60.078,-43.672 103.434,-43.672 34.672,0 65.637,10.43 92.887,31.29 27.234,20.839 40.867,44.687 40.867,71.523 0,15.684 -7.664,23.535 -22.989,23.535 -10.742,0 -17.585,-4.961 -20.476,-14.883 l -5.598,-17.949 c -4.558,-15.273 -14.375,-27.871 -29.504,-37.773 -15.117,-9.922 -31.757,-14.864 -49.972,-14.864 -27.743,0 -50.922,10.371 -69.555,31.133 -18.629,20.742 -27.949,46.68 -27.949,77.813 0,3.34 0.824,5.722 2.476,7.148 1.657,1.465 5.188,2.188 10.571,2.188 h 197.461 c 9.918,0 15.933,1.738 18.003,5.254 2.075,3.496 3.118,13.046 3.118,28.687 0,39.91 -12.61,72.813 -37.793,98.731" /><path
         id="path26"
         style="fill:#e45e16;fill-opacity:1;fill-rule:nonzero;stroke:none"
         d="m 425.188,486.773 v -17.824 c 25.023,31.68 58.359,47.531 100.054,47.531 22.528,0 43.785,-5.722 63.789,-17.207 20.008,-11.464 33.559,-25.742 40.641,-42.832 5.851,-14.171 8.762,-32.726 8.762,-55.644 V 281.973 c 0,-17.93 0.218,-28.575 0.629,-31.895 2.089,-14.18 7.699,-21.269 16.894,-21.269 3.738,0 8.645,0.527 14.688,1.562 6.043,1.035 10.316,1.563 12.816,1.563 5.418,0 10.102,-1.875 14.078,-5.625 3.961,-3.75 5.945,-8.34 5.945,-13.75 0,-6.27 -2.504,-11.485 -7.504,-15.645 -5.019,-4.16 -11.058,-6.25 -18.148,-6.25 -5.828,0 -15.422,0.84 -28.766,2.5 -13.347,1.66 -25.847,2.5 -37.507,2.5 -10.868,0 -19.805,-0.41 -26.895,-1.25 -20.863,-2.5 -31.894,-3.75 -33.156,-3.75 -16.672,0 -25.004,7.305 -25.004,21.895 0,12.91 7.223,19.375 21.68,19.375 3.394,0 7.214,-0.43 11.472,-1.25 8.071,-1.68 13.164,-2.5 15.305,-2.5 10.199,0 15.715,11.464 16.578,34.394 v 117.563 c 0,22.109 -1.047,37.316 -3.117,45.656 -3.742,15.84 -11.84,28.133 -24.289,36.894 -13.719,9.59 -29.285,14.395 -46.723,14.395 -33.234,0 -57.113,-11.895 -71.64,-35.656 -9.969,-16.25 -14.95,-43.985 -14.95,-83.168 v -83.184 c 0,-18.34 1.254,-30.84 3.743,-37.5 2.515,-6.68 7.085,-10.019 13.757,-10.019 3.328,0 7.918,0.722 13.766,2.207 5.828,1.425 10.629,2.168 14.391,2.168 12.914,0 19.375,-6.973 19.375,-20.957 0,-13.555 -8.332,-20.313 -25.008,-20.313 -3.344,0 -14.172,1.25 -32.524,3.75 -9.175,1.25 -19.394,1.875 -30.632,1.875 -8.766,0 -20.442,-0.84 -35.032,-2.5 -18.343,-2.09 -28.765,-3.125 -31.265,-3.125 -17.52,0 -26.262,7.09 -26.262,21.25 0,13.34 6.789,20.02 20.383,20.02 2.121,0 6.047,-0.625 11.777,-1.875 5.731,-1.25 11.359,-1.875 16.875,-1.875 12.75,0 19.32,12.089 19.758,36.269 V 431.43 c -0.863,14.16 -2.668,23.859 -5.414,29.082 -2.77,5.207 -7.555,7.812 -14.344,7.812 -2.969,0 -7.324,-0.625 -13.051,-1.875 -5.746,-1.258 -10.082,-1.863 -13.05,-1.863 -15.297,0 -22.934,6.758 -22.934,20.312 0,13.965 9.375,20.957 28.133,20.957 2.504,0 4.59,-0.214 6.258,-0.636 l 23.136,-2.5 c 6.66,0 12.504,0.519 17.504,1.562 10.852,1.035 16.481,1.574 16.895,1.574 12.086,0 18.133,-6.367 18.133,-19.082" /><path
         id="path28"
         style="fill:#e45e16;fill-opacity:1;fill-rule:nonzero;stroke:none"
         d="m 1603.68,458.277 c 0,-3.214 1,-4.804 2.98,-4.804 0.16,0 0.38,0.039 0.73,0.117 0.35,0 0.6,0 0.76,0 0.57,0.332 1.24,0.476 1.94,0.476 1.73,0 2.61,-0.925 2.61,-2.812 0,-1.895 -1.17,-2.852 -3.43,-2.852 -0.5,0 -0.83,0.051 -1,0.129 L 1604.8,449 c -0.57,0.125 -2.01,0.137 -4.29,0.137 -2.45,0 -3.98,-0.012 -4.58,-0.137 l -3.44,-0.469 c -0.21,-0.078 -0.55,-0.129 -0.98,-0.129 -2.32,0 -3.46,0.957 -3.46,2.852 0,1.887 0.85,2.812 2.6,2.812 0.73,0 1.34,-0.144 1.84,-0.476 0.24,0 0.53,0 0.88,0 0.33,-0.078 0.58,-0.117 0.72,-0.117 1.97,0 2.95,1.59 2.95,4.804 v 27.95 c 0,3.054 -1.52,4.589 -4.55,4.589 h -2.24 c -3.02,0 -4.52,-1.503 -4.52,-4.503 0,-0.653 0.03,-1.387 0.1,-2.176 l 0.23,-2.551 v -1.699 c 0,-3.153 -0.99,-4.746 -3.06,-4.746 -1.98,0 -2.95,1.25 -2.95,3.652 0,0.664 0.04,1.652 0.1,3.047 0,0.664 0.05,1.476 0.13,2.461 0.07,0.715 0.12,1.262 0.12,1.679 0,0.743 -0.07,1.836 -0.2,3.301 -0.11,1.446 -0.15,2.559 -0.15,3.282 0,2.187 1.01,3.281 3.07,3.281 0.14,0 0.76,0 1.71,0 1,-0.078 1.88,-0.125 2.69,-0.125 0.28,0 2.15,-0.051 5.68,-0.235 2.19,-0.078 4.86,-0.129 7.86,-0.129 2.79,0 5.21,0.051 7.24,0.129 6.11,0.235 9.11,0.36 8.97,0.36 2.51,0 3.81,-1.055 3.81,-3.211 0,0.105 -0.05,-0.82 -0.12,-2.695 -0.24,-2.872 -0.35,-4.454 -0.35,-4.68 0,-0.731 0.09,-1.883 0.23,-3.457 0.17,-1.571 0.24,-2.696 0.24,-3.457 0,-2.117 -1.03,-3.203 -3.09,-3.203 -2.03,0 -3.06,1.32 -3.06,3.964 0,0.051 0.01,0.43 0.08,1.094 0,0.586 0,1.055 0,1.477 l 0.28,2.715 c 0.12,0.906 0.12,1.57 0.12,1.98 0,2.949 -1.73,4.445 -5.16,4.445 h -2.03 c -2.87,0 -4.37,-1.398 -4.54,-4.211 v -28.328" /><path
         id="path30"
         style="fill:none;stroke:#e45e16;stroke-width:2.56732988;stroke-linecap:butt;stroke-linejoin:miter;stroke-miterlimit:4;stroke-dasharray:none;stroke-opacity:1"
         d="m 1603.68,458.277 c 0,-3.214 1,-4.804 2.98,-4.804 0.16,0 0.38,0.039 0.73,0.117 0.35,0 0.6,0 0.76,0 0.57,0.332 1.24,0.476 1.94,0.476 1.73,0 2.61,-0.925 2.61,-2.812 0,-1.895 -1.17,-2.852 -3.43,-2.852 -0.5,0 -0.83,0.051 -1,0.129 L 1604.8,449 c -0.57,0.125 -2.01,0.137 -4.29,0.137 -2.45,0 -3.98,-0.012 -4.58,-0.137 l -3.44,-0.469 c -0.21,-0.078 -0.55,-0.129 -0.98,-0.129 -2.32,0 -3.46,0.957 -3.46,2.852 0,1.887 0.85,2.812 2.6,2.812 0.73,0 1.34,-0.144 1.84,-0.476 0.24,0 0.53,0 0.88,0 0.33,-0.078 0.58,-0.117 0.72,-0.117 1.97,0 2.95,1.59 2.95,4.804 v 27.95 c 0,3.054 -1.52,4.589 -4.55,4.589 h -2.24 c -3.02,0 -4.52,-1.503 -4.52,-4.503 0,-0.653 0.03,-1.387 0.1,-2.176 l 0.23,-2.551 v -1.699 c 0,-3.153 -0.99,-4.746 -3.06,-4.746 -1.98,0 -2.95,1.25 -2.95,3.652 0,0.664 0.04,1.652 0.1,3.047 0,0.664 0.05,1.476 0.13,2.461 0.07,0.715 0.12,1.262 0.12,1.679 0,0.743 -0.07,1.836 -0.2,3.301 -0.11,1.446 -0.15,2.559 -0.15,3.282 0,2.187 1.01,3.281 3.07,3.281 0.14,0 0.76,0 1.71,0 1,-0.078 1.88,-0.125 2.69,-0.125 0.28,0 2.15,-0.051 5.68,-0.235 2.19,-0.078 4.86,-0.129 7.86,-0.129 2.79,0 5.21,0.051 7.24,0.129 6.11,0.235 9.11,0.36 8.97,0.36 2.51,0 3.81,-1.055 3.81,-3.211 0,0.105 -0.05,-0.82 -0.12,-2.695 -0.24,-2.872 -0.35,-4.454 -0.35,-4.68 0,-0.731 0.09,-1.883 0.23,-3.457 0.17,-1.571 0.24,-2.696 0.24,-3.457 0,-2.117 -1.03,-3.203 -3.09,-3.203 -2.03,0 -3.06,1.32 -3.06,3.964 0,0.051 0.01,0.43 0.08,1.094 0,0.586 0,1.055 0,1.477 l 0.28,2.715 c 0.12,0.906 0.12,1.57 0.12,1.98 0,2.949 -1.73,4.445 -5.16,4.445 h -2.03 c -2.87,0 -4.37,-1.398 -4.54,-4.211 z" /><path
         id="path32"
         style="fill:#e45e16;fill-opacity:1;fill-rule:nonzero;stroke:none"
         d="m 1649.26,490.453 10.18,-33.652 11.38,35.969 c 0.63,2.039 1.82,3.074 3.44,3.074 h 0.39 c 0.57,0 1.58,-0.078 3.07,-0.301 1.48,-0.188 2.64,-0.313 3.46,-0.313 1.71,0 2.8,0.059 3.19,0.125 l 2.45,0.489 h 0.88 c 2.35,0 3.59,-0.957 3.59,-2.832 0,-1.719 -0.88,-2.559 -2.6,-2.559 -0.65,0 -1.28,0.078 -1.87,0.215 -0.19,0 -0.5,0.031 -0.74,0.148 -0.31,0 -0.57,0 -0.72,0 -2.07,0 -3.08,-1.64 -3.08,-4.804 v -27.637 c 0,-3.164 1.01,-4.785 3.08,-4.785 0.41,0 0.96,0.078 1.7,0.242 0.76,0.176 1.31,0.234 1.63,0.234 1.72,0 2.6,-0.906 2.6,-2.761 0,-1.926 -1.11,-2.903 -3.33,-2.903 -0.43,0 -0.79,0.051 -1.14,0.129 l -3.45,0.391 c -1.52,0.144 -3.05,0.215 -4.53,0.215 -1.91,0 -3.98,-0.137 -6.16,-0.469 -1.09,-0.156 -1.91,-0.266 -2.49,-0.266 -1.96,0 -2.96,0.957 -2.96,2.852 0,1.887 1.07,2.812 3.19,2.812 h 1.16 l 1.72,-0.476 c 1.05,0 1.74,0.769 2.12,2.351 0.4,1.555 0.62,4.707 0.68,9.465 0,1.66 0.05,3.867 0.13,6.68 l 0.14,6.16 v 11.817 l -12.71,-39.051 c -0.61,-2.012 -2.08,-2.989 -4.3,-2.989 -2.25,0 -3.66,1.004 -4.32,2.997 l -12.44,39.433 0.36,-31.797 c 0,-3.066 0.78,-4.59 2.37,-4.59 0.65,0 1.36,0 2.04,0 0.22,0 0.48,0 0.91,0 2.05,0 3.07,-0.925 3.07,-2.812 0,-1.895 -1.07,-2.852 -3.21,-2.852 -0.49,0 -0.99,0.051 -1.45,0.129 l -3.26,0.469 c -0.47,0.125 -1.84,0.137 -4.05,0.137 -2.28,0 -3.69,-0.012 -4.18,-0.137 l -2.96,-0.469 c -0.17,-0.078 -0.45,-0.129 -0.85,-0.129 -2.47,0 -3.71,0.977 -3.71,2.989 0,1.797 0.85,2.675 2.58,2.675 0.68,0 1.32,-0.144 1.98,-0.476 0.16,0 0.41,0 0.76,0 0.31,-0.078 0.53,-0.117 0.72,-0.117 1.97,0 2.95,1.59 2.95,4.804 v 4.805 l 0.12,6.141 v 5.8 l -0.12,6.145 v 4.844 c 0,3.164 -1.03,4.804 -3.1,4.804 -0.06,0 -0.26,0 -0.57,0 -0.35,-0.117 -0.6,-0.148 -0.76,-0.148 -0.57,-0.137 -1.23,-0.215 -1.98,-0.215 -1.73,0 -2.58,0.84 -2.58,2.559 0,1.875 1.21,2.832 3.56,2.832 h 1 l 2.34,-0.36 c 1.06,-0.136 2.19,-0.254 3.32,-0.254 1.48,0 2.74,0.125 3.86,0.372 1.8,0.164 2.79,0.242 3.03,0.242 1.9,0 3.23,-1.199 3.95,-3.672 l 0.52,-1.719" /><path
         id="path34"
         style="fill:none;stroke:#e45e16;stroke-width:2.56732988;stroke-linecap:butt;stroke-linejoin:miter;stroke-miterlimit:4;stroke-dasharray:none;stroke-opacity:1"
         d="m 1649.26,490.453 10.18,-33.652 11.38,35.969 c 0.63,2.039 1.82,3.074 3.44,3.074 h 0.39 c 0.57,0 1.58,-0.078 3.07,-0.301 1.48,-0.188 2.64,-0.313 3.46,-0.313 1.71,0 2.8,0.059 3.19,0.125 l 2.45,0.489 h 0.88 c 2.35,0 3.59,-0.957 3.59,-2.832 0,-1.719 -0.88,-2.559 -2.6,-2.559 -0.65,0 -1.28,0.078 -1.87,0.215 -0.19,0 -0.5,0.031 -0.74,0.148 -0.31,0 -0.57,0 -0.72,0 -2.07,0 -3.08,-1.64 -3.08,-4.804 v -27.637 c 0,-3.164 1.01,-4.785 3.08,-4.785 0.41,0 0.96,0.078 1.7,0.242 0.76,0.176 1.31,0.234 1.63,0.234 1.72,0 2.6,-0.906 2.6,-2.761 0,-1.926 -1.11,-2.903 -3.33,-2.903 -0.43,0 -0.79,0.051 -1.14,0.129 l -3.45,0.391 c -1.52,0.144 -3.05,0.215 -4.53,0.215 -1.91,0 -3.98,-0.137 -6.16,-0.469 -1.09,-0.156 -1.91,-0.266 -2.49,-0.266 -1.96,0 -2.96,0.957 -2.96,2.852 0,1.887 1.07,2.812 3.19,2.812 h 1.16 l 1.72,-0.476 c 1.05,0 1.74,0.769 2.12,2.351 0.4,1.555 0.62,4.707 0.68,9.465 0,1.66 0.05,3.867 0.13,6.68 l 0.14,6.16 v 11.817 l -12.71,-39.051 c -0.61,-2.012 -2.08,-2.989 -4.3,-2.989 -2.25,0 -3.66,1.004 -4.32,2.997 l -12.44,39.433 0.36,-31.797 c 0,-3.066 0.78,-4.59 2.37,-4.59 0.65,0 1.36,0 2.04,0 0.22,0 0.48,0 0.91,0 2.05,0 3.07,-0.925 3.07,-2.812 0,-1.895 -1.07,-2.852 -3.21,-2.852 -0.49,0 -0.99,0.051 -1.45,0.129 l -3.26,0.469 c -0.47,0.125 -1.84,0.137 -4.05,0.137 -2.28,0 -3.69,-0.012 -4.18,-0.137 l -2.96,-0.469 c -0.17,-0.078 -0.45,-0.129 -0.85,-0.129 -2.47,0 -3.71,0.977 -3.71,2.989 0,1.797 0.85,2.675 2.58,2.675 0.68,0 1.32,-0.144 1.98,-0.476 0.16,0 0.41,0 0.76,0 0.31,-0.078 0.53,-0.117 0.72,-0.117 1.97,0 2.95,1.59 2.95,4.804 v 4.805 l 0.12,6.141 v 5.8 l -0.12,6.145 v 4.844 c 0,3.164 -1.03,4.804 -3.1,4.804 -0.06,0 -0.26,0 -0.57,0 -0.35,-0.117 -0.6,-0.148 -0.76,-0.148 -0.57,-0.137 -1.23,-0.215 -1.98,-0.215 -1.73,0 -2.58,0.84 -2.58,2.559 0,1.875 1.21,2.832 3.56,2.832 h 1 l 2.34,-0.36 c 1.06,-0.136 2.19,-0.254 3.32,-0.254 1.48,0 2.74,0.125 3.86,0.372 1.8,0.164 2.79,0.242 3.03,0.242 1.9,0 3.23,-1.199 3.95,-3.672 z" /><path
         id="path36"
         style="fill:#b00357;fill-opacity:1;fill-rule:nonzero;stroke:none"
         d="m 235.605,706.977 c 0,-19.258 -0.449,-32.598 -1.308,-40.028 -2.652,-21.445 -12.207,-39.277 -28.668,-53.488 -16.457,-14.227 -35.883,-21.328 -58.289,-21.328 -29.86,0 -53.1252,11.808 -69.8205,35.441 -16.6757,23.621 -25.0039,56.649 -25.0039,99.09 0,40.695 8.1133,72.402 24.3594,95.156 16.2461,22.735 38.867,34.121 67.832,34.121 18.445,0 35.141,-5.468 50.059,-16.394 17.554,-12.688 29.199,-29.766 34.914,-51.192 3.078,-12.695 5.047,-33.691 5.925,-63.007 z M 315.77,402.711 c -2.899,-0.059 -5.688,-0.195 -8.625,-0.996 -5.243,-1.438 -9.508,-1.242 -12.387,-1.242 -5.754,0 -7.309,5.859 -8.11,15.293 -0.316,42.109 -0.187,110.234 -0.515,129.777 l -1.309,93.836 V 764.73 l 1.309,78.086 1.305,13.789 c 0,22.747 -7.434,34.122 -22.305,34.122 -14.875,0 -22.305,-9.414 -22.305,-28.211 0,0.429 0.43,-3.723 1.309,-12.473 -27.129,32.805 -61.028,49.219 -101.735,49.219 -43.7497,0 -78.4137,-15.653 -103.9997,-46.922 C 12.8008,821.039 0,778.715 0,725.348 0,671.969 13.3008,629.203 39.9258,597.047 c 26.5976,-32.16 61.7222,-48.234 105.3552,-48.234 35.774,0 65.879,12.46 90.324,37.402 v -29.52 c 0,-25.8 1.243,-159.609 0.231,-175.168 -0.02,-0.339 0.086,-0.632 0.094,-0.964 l -0.016,-0.52 c 0,-11.98 5.781,-17.957 17.356,-17.957 3.71,0 8.046,0.605 13,1.855 7.437,0.809 11.757,1.239 13.003,1.239 2.481,0 8.872,-0.633 19.207,-1.864 7.004,-0.82 12.375,-1.406 16.094,-1.23 9.313,0.437 20.274,7.715 20.274,21.551 0,13.41 -10.555,19.289 -19.078,19.074" /><path
         id="path38"
         style="fill:#b00357;fill-opacity:1;fill-rule:nonzero;stroke:none"
         d="m 101.855,20.8672 c -8.2222,0 -13.3941,2.0117 -17.2964,5.8047 -2.1016,2.1054 -4.6367,5.4844 -4.6367,9.2734 0,2.0156 1.7929,3.8008 4.0078,3.8008 2.4258,0 3.375,-1.6914 4.2187,-3.5859 2.1094,-4.8516 5.9024,-8.75 14.3356,-8.75 8.438,0 12.758,4.3281 12.758,8.75 0,6.75 -7.062,8.4375 -12.543,9.8046 -11.2849,2.8516 -14.1287,4.1133 -17.1873,6.6407 -2.5273,2.1093 -4.7461,5.4883 -4.7461,9.8047 0,4.9609 2.9571,10.1289 8.0157,12.9687 3.0546,1.6914 7.0625,2.6367 12.4417,2.6367 17.922,0 20.769,-11.1718 20.769,-13.1718 0,-0.7422 -0.316,-3.7969 -3.902,-3.7969 -2.527,0 -3.164,1.1601 -4.531,4.1094 -1.582,3.3789 -5.164,6.3281 -12.129,6.3281 -6.7464,0 -11.9144,-2.7461 -11.9144,-7.6953 0,-4.2188 3.0625,-6.8555 15.7144,-9.6016 8.329,-1.7852 19.61,-4.8437 19.61,-16.1328 0,-4.7461 -2.422,-17.1875 -22.985,-17.1875" /><path
         id="path40"
         style="fill:#b00357;fill-opacity:1;fill-rule:nonzero;stroke:none"
         d="m 146.129,49.9688 c 0,-18.5508 12.129,-21.9219 17.715,-21.9219 10.226,0 16.449,9.0625 16.449,20.9765 0,16.3477 -9.594,21.8243 -16.77,21.8243 -8.218,0 -17.394,-5.2735 -17.394,-20.8789 z m 19.187,28.0468 c 19.825,0 24.364,-18.5508 24.364,-29.0976 0,-11.5938 -5.278,-28.0508 -24.149,-28.0508 -12.019,0 -18.347,8.125 -19.297,9.4922 V 7.69531 c 0,-3.6914 0,-7.69531 -4.535,-7.69531 -4.636,0 -4.636,4.10938 -4.636,7.58984 V 70.7422 c 0,3.0547 0,4.9609 1.261,6.0156 0.848,0.8399 2.008,1.2578 3.164,1.2578 4.43,0 4.43,-4.6367 4.43,-6.2187 v -3.2617 c 2.637,3.164 7.805,9.4804 19.398,9.4804" /><path
         id="path42"
         style="fill:#b00357;fill-opacity:1;fill-rule:nonzero;stroke:none"
         d="m 224.457,70.8477 c -10.434,0 -16.445,-8.5352 -16.445,-21.4063 0,-13.0625 6.113,-21.3945 16.445,-21.3945 10.34,0 16.242,8.4258 16.242,21.3945 0,13.6055 -6.429,21.4063 -16.242,21.4063 z m -0.102,-49.9805 c -17.187,0 -25.726,12.6562 -25.726,27.5195 0,19.0938 9.699,29.6289 25.726,29.6289 13.813,0 25.727,-8.4258 25.727,-28.5742 0,-20.1367 -12.019,-28.5742 -25.727,-28.5742" /><path
         id="path44"
         style="fill:#b00357;fill-opacity:1;fill-rule:nonzero;stroke:none"
         d="m 307.645,28.3594 c 0,-3.0586 0,-5.0586 -1.262,-6.2227 -0.848,-0.7422 -1.903,-1.2695 -3.274,-1.2695 -1.156,0 -2.425,0.4297 -3.375,1.2695 -1.261,1.1641 -1.261,3.1641 -1.261,6.2227 v 26.0429 c 0,5.3711 -0.528,8.3321 -1.688,10.3321 -2.004,3.4804 -5.801,5.2734 -9.597,5.2734 -5.27,0 -10.543,-2.957 -13.071,-7.5976 -1.582,-2.8399 -2.531,-5.1641 -2.531,-16.6485 V 28.3594 c 0,-3.0586 -0.106,-5.0586 -1.371,-6.2227 -0.844,-0.7422 -1.899,-1.2695 -3.274,-1.2695 -1.156,0 -2.421,0.5273 -3.265,1.2695 -1.266,1.1641 -1.266,3.1641 -1.266,6.2227 v 42.3828 c 0,2.957 0,4.8516 1.16,6.0156 0.633,0.5274 1.797,1.2578 3.27,1.2578 1.683,0 3.164,-1.0508 3.586,-2 0.844,-1.4726 0.945,-2.8437 0.945,-7.3828 2.848,3.6914 7.492,9.3828 17.297,9.3828 6.641,0 11.598,-2.4218 15.391,-6.7461 3.586,-4.1132 3.586,-10.7539 3.586,-14.2265 V 28.3594" /><path
         id="path46"
         style="fill:#b00357;fill-opacity:1;fill-rule:nonzero;stroke:none"
         d="m 324.508,86.0352 c 0,4.0039 0,5.164 0.742,6.5312 0.527,0.9492 2,2.1094 3.793,2.1094 4.641,0 4.641,-4.2149 4.641,-8.1133 v -9.8047 h 4.847 c 2.215,0 5.692,0 5.692,-3.2734 0,-2.4219 -2.528,-3.3672 -5.375,-3.3672 h -5.164 V 37.6367 c 0,-5.4804 0.316,-9.2773 5.48,-9.2773 0.848,0 4.641,0.6328 5.379,0.6328 1.789,0 3.16,-1.1602 3.16,-3.2695 0,-3.586 -4.637,-4.5313 -10.332,-4.5313 -12.863,0 -12.863,8.9649 -12.863,15.7109 v 33.2149 h -3.477 c -4.113,0 -4.113,3.1523 -4.113,3.3672 0,3.2734 3.797,3.2734 4.957,3.2734 h 2.633 v 9.2774" /><path
         id="path48"
         style="fill:#b00357;fill-opacity:1;fill-rule:nonzero;stroke:none"
         d="m 383.762,48.7109 c -6.539,-1.4765 -11.707,-2.2187 -16.028,-3.3789 -6.117,-1.6797 -7.066,-6.1132 -7.066,-8.2226 0,-3.8008 2.848,-9.0625 10.441,-9.0625 5.793,0 13.282,2.4219 16.446,7.8984 2.109,3.586 2.316,8.5469 2.316,14.6602 -1.363,-0.5274 -3.266,-1.2617 -6.109,-1.8946 z M 369,20.8672 c -12.129,0 -17.715,7.9101 -17.715,15.6055 0,12.4453 11.492,14.875 17.926,16.1328 2.426,0.5273 13.285,2.4336 15.394,2.9609 1.579,0.418 2.739,0.7305 5.165,1.582 -0.215,7.2735 -0.422,14.1211 -12.442,14.1211 -6.328,0 -13.074,-1.8945 -15.394,-7.5898 -0.95,-2.4219 -1.692,-4.4219 -4.536,-4.4219 -2.21,0 -4.113,1.6797 -4.113,3.8945 0,3.1641 3.586,14.8633 23.41,14.8633 20.879,0 22.246,-9.9101 22.246,-22.5547 0,-2.7461 -0.312,-14.7695 -0.312,-17.1914 0,-5.0547 0.84,-7.3828 1.473,-9.0703 0.101,-0.5273 1.054,-3.0586 1.054,-4.7344 0,-1.7968 -2.008,-3.5976 -4.426,-3.5976 -3.585,0 -5.066,5.0703 -6.121,8.9687 -2.843,-2.7461 -9.695,-8.9687 -21.609,-8.9687" /><path
         id="path50"
         style="fill:#b00357;fill-opacity:1;fill-rule:nonzero;stroke:none"
         d="m 459.242,28.3594 c 0,-3.0586 0,-5.0586 -1.262,-6.2227 -0.847,-0.7422 -1.902,-1.2695 -3.273,-1.2695 -1.156,0 -2.426,0.4297 -3.375,1.2695 -1.266,1.1641 -1.266,3.1641 -1.266,6.2227 v 26.0429 c 0,5.3711 -0.523,8.3321 -1.687,10.3321 -2,3.4804 -5.797,5.2734 -9.594,5.2734 -5.269,0 -10.543,-2.957 -13.07,-7.5976 -1.582,-2.8399 -2.531,-5.1641 -2.531,-16.6485 V 28.3594 c 0,-3.0586 -0.11,-5.0586 -1.371,-6.2227 -0.844,-0.7422 -1.903,-1.2695 -3.274,-1.2695 -1.156,0 -2.422,0.5273 -3.266,1.2695 -1.265,1.1641 -1.265,3.1641 -1.265,6.2227 v 42.3828 c 0,2.957 0,4.8516 1.16,6.0156 0.633,0.5274 1.797,1.2578 3.27,1.2578 1.683,0 3.164,-1.0508 3.582,-2 0.847,-1.4726 0.949,-2.8437 0.949,-7.3828 2.847,3.6914 7.492,9.3828 17.297,9.3828 6.636,0 11.593,-2.4218 15.386,-6.7461 3.59,-4.1132 3.59,-10.7539 3.59,-14.2265 V 28.3594" /><path
         id="path52"
         style="fill:#b00357;fill-opacity:1;fill-rule:nonzero;stroke:none"
         d="m 512.168,53.9844 c -0.215,3.0586 -0.426,6.3164 -2.742,10.332 -2.321,4.0039 -6.645,6.9531 -12.653,6.9531 -7.382,0 -11.496,-4.5312 -13.496,-8.2226 -1.793,-3.2735 -2.218,-6.6406 -2.531,-9.0625 z m -31.527,-6.3281 c 0.316,-14.6602 8.429,-20.0391 17.078,-20.0391 9.066,0 12.23,4.9609 15.394,9.8125 0.633,0.9492 1.688,2.7383 3.903,2.7383 2.004,0 3.476,-1.6836 3.476,-3.4805 0,-1.6875 -0.945,-3.4727 -1.793,-4.8516 -2.422,-4.0039 -7.801,-10.9687 -21.398,-10.9687 -17.926,0 -26.047,12.5508 -26.047,28.6836 0,15.8203 8.223,28.4648 25.836,28.4648 21.609,0 24.457,-19.7148 24.457,-24.4609 0,-5.8984 -4.43,-5.8984 -8.113,-5.8984 h -32.793" /><path
         id="path54"
         style="fill:#b00357;fill-opacity:1;fill-rule:nonzero;stroke:none"
         d="m 556.227,70.8477 c -10.434,0 -16.446,-8.5352 -16.446,-21.4063 0,-13.0625 6.114,-21.3945 16.446,-21.3945 10.336,0 16.238,8.4258 16.238,21.3945 0,13.6055 -6.43,21.4063 -16.238,21.4063 z m -0.106,-49.9805 c -17.183,0 -25.726,12.6562 -25.726,27.5195 0,19.0938 9.703,29.6289 25.726,29.6289 13.817,0 25.731,-8.4258 25.731,-28.5742 0,-20.1367 -12.024,-28.5742 -25.731,-28.5742" /><path
         id="path56"
         style="fill:#b00357;fill-opacity:1;fill-rule:nonzero;stroke:none"
         d="m 593.652,70.4297 c 0,3.1641 0,5.0586 1.266,6.2187 0.844,0.8399 2,1.3672 3.375,1.3672 1.16,0 2.426,-0.5273 3.27,-1.2578 1.265,-1.2695 1.265,-3.164 1.265,-6.3281 V 44.9102 c 0,-3.6914 0,-7.586 1.789,-10.5469 2.113,-3.4766 5.906,-5.4766 9.699,-5.4766 5.274,0 10.649,3.0547 13.079,7.586 1.261,2.4336 2.425,4.6406 2.425,16.875 v 17.082 c 0,3.0547 0,5.0586 1.266,6.2187 0.734,0.6368 1.789,1.3672 3.266,1.3672 1.261,0 2.425,-0.5273 3.375,-1.2578 1.261,-1.2695 1.261,-3.164 1.261,-6.3281 V 28.1445 c 0,-2.9492 0,-4.8437 -1.261,-6.0078 -0.633,-0.6328 -1.793,-1.2695 -3.164,-1.2695 -1.793,0 -3.27,1.0547 -3.688,2.0117 -0.637,1.4766 -0.742,2.8438 -0.742,7.4805 -2.738,-3.4766 -7.379,-9.4922 -17.711,-9.4922 -5.59,0 -13.184,2.2187 -16.133,8.0195 -2.426,4.7461 -2.637,8.2227 -2.637,12.4414 v 29.1016" /><path
         id="path58"
         style="fill:#b00357;fill-opacity:1;fill-rule:nonzero;stroke:none"
         d="m 673.035,20.8672 c -8.222,0 -13.39,2.0117 -17.293,5.8047 -2.105,2.1054 -4.637,5.4844 -4.637,9.2734 0,2.0156 1.79,3.8008 4.008,3.8008 2.426,0 3.371,-1.6914 4.219,-3.5859 2.109,-4.8516 5.902,-8.75 14.336,-8.75 8.437,0 12.758,4.3281 12.758,8.75 0,6.75 -7.067,8.4375 -12.543,9.8046 -11.285,2.8516 -14.133,4.1133 -17.188,6.6407 -2.531,2.1093 -4.746,5.4883 -4.746,9.8047 0,4.9609 2.953,10.1289 8.012,12.9687 3.059,1.6914 7.066,2.6367 12.441,2.6367 17.926,0 20.774,-11.1718 20.774,-13.1718 0,-0.7422 -0.321,-3.7969 -3.903,-3.7969 -2.531,0 -3.164,1.1601 -4.531,4.1094 -1.582,3.3789 -5.168,6.3281 -12.129,6.3281 -6.75,0 -11.914,-2.7461 -11.914,-7.6953 0,-4.2188 3.063,-6.8555 15.711,-9.6016 8.332,-1.7852 19.61,-4.8437 19.61,-16.1328 0,-4.7461 -2.422,-17.1875 -22.985,-17.1875" /><path
         id="path60"
         style="fill:#b00357;fill-opacity:1;fill-rule:nonzero;stroke:none"
         d="m 747.043,49.9688 c 0,-18.5508 12.129,-21.9219 17.715,-21.9219 10.226,0 16.449,9.0625 16.449,20.9765 0,16.3477 -9.598,21.8243 -16.769,21.8243 -8.223,0 -17.395,-5.2735 -17.395,-20.8789 z m 19.187,28.0468 c 19.825,0 24.36,-18.5508 24.36,-29.0976 0,-11.5938 -5.274,-28.0508 -24.145,-28.0508 -12.019,0 -18.347,8.125 -19.297,9.4922 V 7.69531 c 0,-3.6914 0,-7.69531 -4.535,-7.69531 -4.64,0 -4.64,4.10938 -4.64,7.58984 V 70.7422 c 0,3.0547 0,4.9609 1.265,6.0156 0.844,0.8399 2.008,1.2578 3.164,1.2578 4.43,0 4.43,-4.6367 4.43,-6.2187 v -3.2617 c 2.637,3.164 7.801,9.4804 19.398,9.4804" /><path
         id="path62"
         style="fill:#b00357;fill-opacity:1;fill-rule:nonzero;stroke:none"
         d="m 812.402,28.3594 c 0,-3.2696 -0.101,-4.8555 -1.265,-6.1133 -0.739,-0.7422 -1.895,-1.3789 -3.371,-1.3789 -4.536,0 -4.536,4.0156 -4.536,7.4922 v 62.9492 c 0,3.2617 0,4.9492 1.161,6.1133 0.738,0.7422 1.793,1.4726 3.375,1.4726 1.16,0 2.425,-0.5273 3.371,-1.3672 1.164,-1.2695 1.265,-3.0546 1.265,-6.2187 V 28.3594" /><path
         id="path64"
         style="fill:#b00357;fill-opacity:1;fill-rule:nonzero;stroke:none"
         d="m 857.32,48.7109 c -6.539,-1.4765 -11.707,-2.2187 -16.027,-3.3789 -6.117,-1.6797 -7.063,-6.1132 -7.063,-8.2226 0,-3.8008 2.844,-9.0625 10.438,-9.0625 5.797,0 13.281,2.4219 16.445,7.8984 2.11,3.586 2.321,8.5469 2.321,14.6602 -1.368,-0.5274 -3.266,-1.2617 -6.114,-1.8946 z M 842.559,20.8672 c -12.129,0 -17.715,7.9101 -17.715,15.6055 0,12.4453 11.496,14.875 17.926,16.1328 2.425,0.5273 13.285,2.4336 15.394,2.9609 1.578,0.418 2.738,0.7305 5.164,1.582 -0.215,7.2735 -0.422,14.1211 -12.437,14.1211 -6.328,0 -13.078,-1.8945 -15.399,-7.5898 -0.945,-2.4219 -1.687,-4.4219 -4.535,-4.4219 -2.211,0 -4.109,1.6797 -4.109,3.8945 0,3.1641 3.582,14.8633 23.406,14.8633 20.879,0 22.246,-9.9101 22.246,-22.5547 0,-2.7461 -0.312,-14.7695 -0.312,-17.1914 0,-5.0547 0.839,-7.3828 1.472,-9.0703 0.106,-0.5273 1.059,-3.0586 1.059,-4.7344 0,-1.7968 -2.004,-3.5976 -4.43,-3.5976 -3.586,0 -5.062,5.0703 -6.117,8.9687 -2.848,-2.7461 -9.699,-8.9687 -21.613,-8.9687" /><path
         id="path66"
         style="fill:#b00357;fill-opacity:1;fill-rule:nonzero;stroke:none"
         d="m 881.453,69.4805 c -0.738,2.0039 -1.16,3.0586 -1.16,4.3164 0,2.0117 1.898,4.2187 4.535,4.2187 3.059,0 3.902,-2.3125 5.059,-5.3711 l 14.972,-40.8086 15.5,40.2813 c 1.793,4.6406 2.321,5.8984 5.063,5.8984 2.742,0 4.109,-2.4218 4.109,-3.789 0,-1.1602 -0.422,-2.3243 -1.265,-4.5391 L 906.34,13.4961 C 902.539,3.89453 898.953,0 890.309,0 c -3.586,0 -8.856,0.625 -8.856,4.74609 0,1.67969 1.16,3.67969 3.586,3.67969 0.738,0 4.004,-0.3125 4.641,-0.3125 4.425,0 6.113,3.16402 7.59,6.75002 l 2.847,7.2734 -18.664,47.3438" /><path
         id="path68"
         style="fill:#b00357;fill-opacity:1;fill-rule:nonzero;stroke:none"
         d="m 961.27,28.4648 c -1.165,-4.1093 -2.11,-7.5976 -6.434,-7.5976 -4.008,0 -4.953,2.6367 -6.438,7.2773 l -14.019,41.4453 c -0.734,2.5274 -1.055,3.2618 -1.055,4.4219 0,1.8946 1.688,4.0039 4.219,4.0039 3.27,0 3.902,-2.207 5.059,-5.789 l 12.125,-39.336 10.656,38.1719 c 1.148,4.1133 2,6.9531 5.894,6.9531 3.911,0 4.746,-2.8398 5.911,-6.9531 l 10.644,-38.1719 12.129,39.336 c 1.159,3.6797 1.799,5.789 5.059,5.789 2.32,0 4.22,-2 4.22,-4.0039 0,-1.1601 -0.21,-1.8945 -1.06,-4.4219 L 994.16,28.1445 c -1.472,-4.6406 -2.422,-7.2773 -6.426,-7.2773 -4.328,0 -5.273,3.4883 -6.433,7.5976 L 971.277,64.4219 961.27,28.4648" /><path
         id="path70"
         style="fill:#b00357;fill-opacity:1;fill-rule:nonzero;stroke:none"
         d="m 1056.36,53.9844 c -0.21,3.0586 -0.42,6.3164 -2.74,10.332 -2.32,4.0039 -6.65,6.9531 -12.65,6.9531 -7.39,0 -11.5,-4.5312 -13.5,-8.2226 -1.8,-3.2735 -2.22,-6.6406 -2.53,-9.0625 z m -31.53,-6.3281 c 0.32,-14.6602 8.44,-20.0391 17.08,-20.0391 9.08,0 12.24,4.9609 15.39,9.8125 0.64,0.9492 1.69,2.7383 3.91,2.7383 2,0 3.48,-1.6836 3.48,-3.4805 0,-1.6875 -0.95,-3.4727 -1.79,-4.8516 -2.43,-4.0039 -7.8,-10.9687 -21.41,-10.9687 -17.93,0 -26.04,12.5508 -26.04,28.6836 0,15.8203 8.22,28.4648 25.83,28.4648 21.62,0 24.46,-19.7148 24.46,-24.4609 0,-5.8984 -4.42,-5.8984 -8.11,-5.8984 h -32.8" /><path
         id="path72"
         style="fill:#b00357;fill-opacity:1;fill-rule:nonzero;stroke:none"
         d="m 1107.07,48.7109 c -6.54,-1.4765 -11.71,-2.2187 -16.03,-3.3789 -6.11,-1.6797 -7.07,-6.1132 -7.07,-8.2226 0,-3.8008 2.86,-9.0625 10.44,-9.0625 5.8,0 13.3,2.4219 16.46,7.8984 2.11,3.586 2.31,8.5469 2.31,14.6602 -1.36,-0.5274 -3.27,-1.2617 -6.11,-1.8946 z M 1092.3,20.8672 c -12.11,0 -17.71,7.9101 -17.71,15.6055 0,12.4453 11.49,14.875 17.93,16.1328 2.42,0.5273 13.28,2.4336 15.39,2.9609 1.58,0.418 2.74,0.7305 5.17,1.582 -0.21,7.2735 -0.42,14.1211 -12.45,14.1211 -6.32,0 -13.07,-1.8945 -15.39,-7.5898 -0.94,-2.4219 -1.69,-4.4219 -4.53,-4.4219 -2.21,0 -4.11,1.6797 -4.11,3.8945 0,3.1641 3.59,14.8633 23.41,14.8633 20.87,0 22.25,-9.9101 22.25,-22.5547 0,-2.7461 -0.33,-14.7695 -0.33,-17.1914 0,-5.0547 0.85,-7.3828 1.48,-9.0703 0.11,-0.5273 1.05,-3.0586 1.05,-4.7344 0,-1.7968 -2,-3.5976 -4.42,-3.5976 -3.58,0 -5.06,5.0703 -6.11,8.9687 -2.86,-2.7461 -9.71,-8.9687 -21.63,-8.9687" /><path
         id="path74"
         style="fill:#b00357;fill-opacity:1;fill-rule:nonzero;stroke:none"
         d="m 1137.63,72.2266 c 0,2.5273 0,5.789 4.01,5.789 3.9,0 3.9,-3.2617 3.9,-5.789 v -4.2188 c 3.69,5.6914 6.54,10.0078 13.29,10.0078 4.53,0 10.86,-2.3125 10.86,-6.2187 0,-2.6367 -2.33,-4.2188 -3.69,-4.2188 -2.33,0 -3.59,1.5821 -7.6,1.5821 -9.81,0 -11.59,-10.6446 -11.59,-23.1954 V 26.1406 c 0,-4.6367 -3.17,-5.2734 -4.54,-5.2734 -1.26,0 -2.43,0.4297 -3.27,1.2695 -1.37,1.1641 -1.37,3.0586 -1.37,6.2227 v 43.8672" /><path
         id="path76"
         style="fill:#b00357;fill-opacity:1;fill-rule:nonzero;stroke:none"
         d="m 1209,81.9219 c 0,5.4804 0.64,9.1719 2.33,11.5937 3.16,4.6485 8.75,5.3789 12.64,5.3789 3.28,0 6.33,-0.6328 7.71,-1.1601 0.62,-0.2071 2.42,-1.0547 2.42,-3.2617 0,-1.9063 -1.37,-3.4883 -3.06,-3.4883 -0.84,0 -4.21,0.5273 -4.96,0.5273 -7.16,0 -7.9,-4.0039 -7.9,-10.4375 v -4.3164 h 5.7 c 2.2,0 5.58,0 5.58,-3.2734 0,-3.4766 -3.58,-3.4766 -5.58,-3.4766 h -5.7 V 28.3594 c 0,-3.0586 -0.1,-5.0586 -1.37,-6.2227 -0.64,-0.6328 -1.79,-1.2695 -3.27,-1.2695 -1.16,0 -2.43,0.4297 -3.27,1.2695 -1.27,1.2696 -1.27,3.1641 -1.27,6.2227 v 41.6484 h -4.95 c -1.05,0 -5.06,0 -5.06,3.4766 0,3.2734 4.01,3.2734 5.27,3.2734 h 4.74 v 5.1641" /><path
         id="path78"
         style="fill:#b00357;fill-opacity:1;fill-rule:nonzero;stroke:none"
         d="m 1259.82,70.8477 c -10.44,0 -16.45,-8.5352 -16.45,-21.4063 0,-13.0625 6.12,-21.3945 16.45,-21.3945 10.34,0 16.23,8.4258 16.23,21.3945 0,13.6055 -6.42,21.4063 -16.23,21.4063 z m -0.1,-49.9805 c -17.19,0 -25.74,12.6562 -25.74,27.5195 0,19.0938 9.71,29.6289 25.74,29.6289 13.81,0 25.72,-8.4258 25.72,-28.5742 0,-20.1367 -12.02,-28.5742 -25.72,-28.5742" /><path
         id="path80"
         style="fill:#b00357;fill-opacity:1;fill-rule:nonzero;stroke:none"
         d="m 1298.09,72.2266 c 0,2.5273 0,5.789 4.01,5.789 3.9,0 3.9,-3.2617 3.9,-5.789 v -4.2188 c 3.69,5.6914 6.54,10.0078 13.29,10.0078 4.53,0 10.86,-2.3125 10.86,-6.2187 0,-2.6367 -2.33,-4.2188 -3.69,-4.2188 -2.33,0 -3.59,1.5821 -7.6,1.5821 -9.81,0 -11.59,-10.6446 -11.59,-23.1954 V 26.1406 c 0,-4.6367 -3.17,-5.2734 -4.55,-5.2734 -1.26,0 -2.42,0.4297 -3.26,1.2695 -1.37,1.1641 -1.37,3.0586 -1.37,6.2227 v 43.8672" /><path
         id="path82"
         style="fill:#b00357;fill-opacity:1;fill-rule:nonzero;stroke:none"
         d="M 1376.95,43.125 V 28.5742 c 0,-3.6914 0,-7.707 -4.74,-7.707 -4.43,0 -4.43,3.5976 -4.43,8.0195 v 61.1524 c 0,3.8007 0,8.8554 4.64,8.8554 2.11,0 3.59,-1.1601 4.21,-2.8398 0.32,-0.957 0.32,-2.9609 0.32,-5.168 v -37.332 l 21.94,21.0937 c 3.26,3.1641 3.69,3.5821 5.26,3.5821 2.43,0 4.33,-2.1094 4.33,-4.1094 0,-1.582 -1.17,-2.6367 -2.95,-4.3242 l -14.24,-13.3906 17.61,-25.4102 c 2.63,-3.8008 2.85,-4.8555 2.85,-5.9063 0,-2.5312 -2.64,-4.2226 -4.64,-4.2226 -2.11,0 -3.27,1.3789 -5.27,4.4336 l -16.88,25.1953 -8.01,-7.3711" /><path
         id="path84"
         style="fill:#b00357;fill-opacity:1;fill-rule:nonzero;stroke:none"
         d="m 1432.51,28.3594 c 0,-2.9492 -0.11,-3.8008 -0.42,-4.5313 -0.63,-2.0039 -2.54,-2.9609 -4.22,-2.9609 -4.54,0 -4.64,4.2226 -4.64,7.4922 v 42.1758 c 0,3.2617 0.1,4.8437 1.26,6.1132 0.84,0.8399 2,1.3672 3.48,1.3672 2.43,0 3.27,-0.9453 3.91,-2.1093 0.63,-1.1524 0.63,-3.5821 0.63,-5.3711 z m -4.64,58.7304 c -2.85,0 -5.07,2.3125 -5.07,5.1641 0,2.7461 2.22,5.0586 5.07,5.0586 2.84,0 5.06,-2.3125 5.06,-5.0586 0,-2.8516 -2.22,-5.1641 -5.06,-5.1641" /><path
         id="path86"
         style="fill:#b00357;fill-opacity:1;fill-rule:nonzero;stroke:none"
         d="m 1488.59,48.918 c 0,18.5625 -12.12,21.9297 -17.71,21.9297 -10.23,0 -16.45,-9.0625 -16.45,-20.9766 0,-16.3477 9.6,-21.8242 16.77,-21.8242 8.22,0 17.39,5.2617 17.39,20.8711 z M 1469.4,20.8672 c -19.81,0 -24.35,18.5664 -24.35,29.1016 0,11.6015 5.27,28.0468 24.15,28.0468 12.02,0 18.34,-8.1133 19.3,-9.4804 v 22.664 c 0,3.6914 0,7.6953 4.53,7.6953 4.64,0 4.64,-4.1093 4.64,-7.5859 V 28.1445 c 0,-3.0547 0,-4.9531 -1.27,-6.0078 -0.84,-0.8398 -2.01,-1.2695 -3.17,-1.2695 -4.42,0 -4.42,4.6406 -4.42,6.2226 v 3.2696 c -2.64,-3.1641 -7.8,-9.4922 -19.41,-9.4922" /><path
         id="path88"
         style="fill:#b00357;fill-opacity:1;fill-rule:nonzero;stroke:none"
         d="m 1531.6,20.8672 c -8.22,0 -13.39,2.0117 -17.28,5.8047 -2.11,2.1054 -4.64,5.4844 -4.64,9.2734 0,2.0156 1.78,3.8008 4,3.8008 2.42,0 3.37,-1.6914 4.22,-3.5859 2.11,-4.8516 5.9,-8.75 14.34,-8.75 8.43,0 12.76,4.3281 12.76,8.75 0,6.75 -7.07,8.4375 -12.55,9.8046 -11.28,2.8516 -14.13,4.1133 -17.19,6.6407 -2.53,2.1093 -4.74,5.4883 -4.74,9.8047 0,4.9609 2.95,10.1289 8.02,12.9687 3.05,1.6914 7.06,2.6367 12.44,2.6367 17.92,0 20.77,-11.1718 20.77,-13.1718 0,-0.7422 -0.32,-3.7969 -3.91,-3.7969 -2.53,0 -3.16,1.1601 -4.53,4.1094 -1.58,3.3789 -5.17,6.3281 -12.13,6.3281 -6.75,0 -11.91,-2.7461 -11.91,-7.6953 0,-4.2188 3.05,-6.8555 15.71,-9.6016 8.33,-1.7852 19.61,-4.8437 19.61,-16.1328 0,-4.7461 -2.42,-17.1875 -22.99,-17.1875" /></g></g></svg>